<mxfile host="app.diagrams.net" modified="2023-11-12T03:48:34.219Z" agent="Mozilla/5.0 (X11; Linux x86_64) AppleWebKit/537.36 (KHTML, like Gecko) Chrome/119.0.0.0 Safari/537.36" version="22.1.0" etag="kL410MCF_DXkuAtZw6B_" type="github">
  <diagram name="PÃ¡gina-1" id="yazhMQ8OGvTBJXQhHkJM">
    <mxGraphModel>
      <root>
        <mxCell id="0" />
        <mxCell id="1" parent="0" />
      </root>
    </mxGraphModel>
  </diagram>
</mxfile>
